<svg version="1.2" xmlns="http://www.w3.org/2000/svg" viewBox="0 0 145 35" width="145" height="35">
	<title>logo-svg</title>
	<style>
		.s0 { fill: #000000 } 
	</style>
	<g id="Layer 4">
		<g id="Shape 1">
			<g id="&lt;Group&gt;">
				<g id="&lt;Path&gt;">
					<g id="&lt;Group&gt;">
						<path id="&lt;Path&gt;" class="s0" d="m34.7 12.4q-4.4-4.4-8.8-8.8c-0.6-0.6-1.4-1-2.3-1h-1.1c-0.3 0-0.5-0.2-0.5-0.5v-0.9c0-0.7-0.5-1.2-1.2-1.2q-2.6 0-5.3 0c-0.6 0-1.2 0.5-1.2 1.2q0 10.9 0 21.9c0 0.5-0.6 0.8-0.9 0.4q-2.6-2.6-5.2-5.2c-0.4-0.4-0.4-1.2 0-1.6q2.3-2.4 4.7-4.7c0.2-0.2 0.3-0.5 0.3-0.8v-8.3c0-0.2-0.1-0.3-0.2-0.3h-0.3c-0.8 0-1.7 0.4-2.3 1q-4.4 4.4-8.8 8.8c-0.6 0.6-1 1.4-1 2.3q0 2.8 0 5.6c0 0.8 0.4 1.7 1 2.3q4.5 4.4 8.9 8.9c0.6 0.6 1.5 0.9 2.3 0.9h1c0.3 0 0.5 0.3 0.5 0.6v0.8c0 0.7 0.6 1.2 1.2 1.2q2.7 0 5.3 0c0.7 0 1.2-0.5 1.2-1.2q0-10.9 0-21.9c0-0.5 0.6-0.8 0.9-0.4q2.6 2.6 5.2 5.2c0.4 0.4 0.4 1.2 0 1.6q-2.3 2.3-4.6 4.7c-0.3 0.2-0.4 0.5-0.4 0.8v8.4c0 0.2 0.1 0.2 0.2 0.2h0.2c0.9 0 1.7-0.3 2.3-0.9q4.5-4.5 8.9-8.9c0.6-0.6 0.9-1.5 0.9-2.3v-5.6c0-0.9-0.3-1.7-0.9-2.3z"/>
					</g>
				</g>
			</g>
		</g>
		<g id="F">
			<g id="&lt;Group&gt;">
				<g id="&lt;Path&gt; 00000016791368652804526290000001428002812206363064 ">
					<g id="&lt;Group&gt;">
						<path id="&lt;Path&gt;" class="s0" d="m46.1 12.9q4.2 0 8.4 0c0.5 0 0.9-0.4 0.9-0.9v-3.9c0-0.5-0.4-0.9-0.9-0.9h-13.6c-0.4 0-0.8 0.4-0.8 0.9v18.8c0 0.5 0.4 0.9 0.8 0.9q2 0 4 0c0.5 0 0.8-0.4 0.8-0.9v-6.2c0-0.2 0.2-0.4 0.4-0.4h8.4c0.5 0 0.9-0.4 0.9-0.8v-4c0-0.5-0.4-0.8-0.9-0.8q-4.2 0-8.4 0c-0.2 0-0.4-0.2-0.4-0.4v-1.1c0-0.2 0.2-0.3 0.4-0.3z"/>
					</g>
				</g>
			</g>
		</g>
		<g id="I">
			<g id="&lt;Group&gt;">
				<g id="&lt;Path&gt; 00000167364619685515550020000000178624691713125762 ">
					<g id="&lt;Group&gt;">
						<path id="&lt;Path&gt;" class="s0" d="m61.8 7.2h-3.9c-0.5 0-0.9 0.4-0.9 0.9v18.8c0 0.5 0.4 0.9 0.9 0.9h3.9c0.5 0 0.9-0.4 0.9-0.9v-18.8c0-0.5-0.4-0.9-0.9-0.9z"/>
					</g>
				</g>
			</g>
		</g>
		<g id="A">
			<g id="&lt;Group&gt;">
				<g id="&lt;Compound Path&gt;">
					<g id="&lt;Group&gt;">
						<path id="&lt;Compound Path&gt;" fill-rule="evenodd" class="s0" d="m81.3 8.1v18.8c0 0.5-0.4 0.9-0.8 0.9q-2 0-4 0c-0.5 0-0.8-0.4-0.8-0.9v-6.2c0-0.2-0.2-0.4-0.4-0.4h-5c-0.1 0-0.3 0.2-0.3 0.4q0 3.1 0 6.2c0 0.5-0.4 0.9-0.9 0.9h-3.9c-0.5 0-0.9-0.4-0.9-0.9v-18.8c0-0.5 0.4-0.9 0.9-0.9h15.3c0.4 0 0.8 0.4 0.8 0.9zm-5.6 5.2c0-0.2-0.2-0.4-0.4-0.4h-5c-0.1 0-0.3 0.2-0.3 0.4q0 0.5 0 1c0 0.2 0.2 0.4 0.3 0.4h5c0.2 0 0.4-0.2 0.4-0.4z"/>
					</g>
				</g>
			</g>
		</g>
		<g id="P">
			<g id="&lt;Group&gt;">
				<g id="&lt;Compound Path&gt; 00000156565757168874276500000015742219744613082551 ">
					<g id="&lt;Group&gt;">
						<path id="&lt;Compound Path&gt;" fill-rule="evenodd" class="s0" d="m100 8.1v11.4c0 0.5-0.4 0.8-0.9 0.8h-10.1c-0.2 0-0.4 0.2-0.4 0.4v6.2c0 0.5-0.4 0.9-0.8 0.9q-2 0-4 0c-0.5 0-0.8-0.4-0.8-0.9v-18.8c0-0.5 0.3-0.9 0.8-0.9h15.3c0.5 0 0.9 0.4 0.9 0.9zm-5.7 5.2c0-0.2-0.2-0.4-0.4-0.4h-4.9c-0.2 0-0.4 0.2-0.4 0.4v1c0 0.2 0.2 0.4 0.4 0.4h4.9c0.2 0 0.4-0.2 0.4-0.4q0-0.5 0-1z"/>
					</g>
				</g>
			</g>
		</g>
		<g id="E">
			<g id="&lt;Group&gt;">
				<g id="&lt;Path&gt; 00000059285081161010514030000017444848204512895918 ">
					<g id="&lt;Group&gt;">
						<path id="&lt;Path&gt;" class="s0" d="m107.8 20.3h8.4c0.5 0 0.9-0.4 0.9-0.8v-4c0-0.5-0.4-0.8-0.9-0.8h-8.4c-0.2 0-0.4-0.2-0.4-0.4v-1.1c0-0.2 0.2-0.3 0.4-0.3h8.4c0.5 0 0.9-0.4 0.9-0.9v-3.9c0-0.5-0.4-0.9-0.9-0.9h-13.6c-0.5 0-0.9 0.4-0.9 0.9v18.8c0 0.5 0.4 0.9 0.9 0.9q6.8 0 13.6 0c0.5 0 0.9-0.4 0.9-0.9q0-2 0-3.9c0-0.5-0.4-0.9-0.9-0.9h-8.4c-0.2 0-0.4-0.2-0.4-0.4v-1c0-0.2 0.2-0.4 0.4-0.4z"/>
					</g>
				</g>
			</g>
		</g>
		<g id="X">
			<g id="&lt;Group&gt;">
				<g id="&lt;Path&gt; 00000150809486481626113280000007727560951435186347 ">
					<g id="&lt;Group&gt;">
						<path id="&lt;Path&gt;" class="s0" d="m132.4 18c-0.2-0.3-0.2-0.7 0-1q3-4.2 5.9-8.4c0.4-0.6 0-1.4-0.7-1.4h-4.8c-0.3 0-0.5 0.2-0.7 0.4q-1.4 1.9-2.8 3.9c-0.3 0.5-1 0.5-1.4 0q-1.3-2-2.7-3.9c-0.2-0.2-0.4-0.4-0.7-0.4h-4.8c-0.7 0-1.1 0.8-0.7 1.4q2.9 4.2 5.9 8.4c0.2 0.3 0.2 0.7 0 1q-3 4.2-5.9 8.4c-0.4 0.6 0 1.4 0.7 1.4h4.8c0.3 0 0.5-0.2 0.7-0.4q1.4-2 2.7-3.9c0.4-0.6 1.1-0.6 1.4 0q1.4 1.9 2.8 3.9c0.2 0.2 0.4 0.4 0.7 0.4h4.8c0.7 0 1.1-0.8 0.7-1.4q-2.9-4.2-5.9-8.4z"/>
					</g>
				</g>
			</g>
		</g>
		<g id="&lt;Compound Path&gt;">
			<g id="&lt;Group&gt;">
				<g id="&lt;Compound Path&gt; 00000159460934147857975550000004277343084915355531 ">
					<g id="&lt;Group&gt;">
						<path id="&lt;Compound Path&gt;" class="s0" d="m140.1 5.4h0.6v1.6h0.5v-1.6h0.6v-0.5h-1.7zm3.6-0.5l-0.6 1-0.5-1h-0.5v2.1h0.5v-1.2l0.5 0.9h0.1l0.5-0.9v1.2h0.5v-2.1z"/>
					</g>
				</g>
			</g>
		</g>
	</g>
</svg>